M48
; DRILL file {KiCad 7.0.11-7.0.11~ubuntu22.04.1} date Sat 23 Nov 2024 22:03:07 CET
; FORMAT={-:-/ absolute / metric / decimal}
; #@! TF.CreationDate,2024-11-23T22:03:07+01:00
; #@! TF.GenerationSoftware,Kicad,Pcbnew,7.0.11-7.0.11~ubuntu22.04.1
; #@! TF.FileFunction,Plated,1,2,PTH
FMAT,2
METRIC
; #@! TA.AperFunction,Plated,PTH,ViaDrill
T1C0.300
; #@! TA.AperFunction,Plated,PTH,ComponentDrill
T2C1.000
%
G90
G05
T1
X98.23Y-88.4
X98.26Y-83.22
X98.59Y-93.66
X99.63Y-103.95
X99.91Y-70.12
X100.36Y-85.73
X100.7Y-90.66
X101.835Y-98.88
X101.855Y-96.75
X102.27Y-80.08
X102.29Y-77.95
X102.67Y-73.63
X102.69Y-83.22
X102.73Y-93.66
X102.77Y-88.4
X102.8Y-106.8
X102.83Y-101.14
X103.88Y-98.88
X103.9Y-96.75
X104.315Y-80.08
X104.335Y-77.95
X104.58Y-85.73
X104.67Y-90.66
X105.52Y-103.95
X105.525Y-98.91
X105.89Y-70.24
X105.945Y-96.75
X105.96Y-80.11
X106.24Y-83.22
X106.36Y-88.4
X106.38Y-77.95
X106.57Y-93.66
X106.97Y-98.98
X107.04Y-95.54
X107.07Y-81.46
X108.22Y-83.22
X108.23Y-94.44
X108.39Y-85.73
X108.47Y-90.66
X108.82Y-106.8
X108.98Y-80.5
X109.19Y-96.36
X109.26Y-101.14
X109.89Y-81.23
X109.96Y-88.4
X109.99Y-95.59
X110.21Y-83.22
X110.5Y-74.36
X111.51Y-80.49
X111.61Y-96.33
X111.98Y-85.73
X112.11Y-83.22
X112.31Y-81.26
X112.45Y-93.66
X112.52Y-95.6
X112.58Y-103.95
X113.26Y-97.52
X113.34Y-79.17
X113.59Y-90.66
X113.69Y-83.22
X113.78Y-93.66
X114.09Y-88.4
X114.14Y-96.78
X114.16Y-79.98
X114.95Y-80.79
X115.0Y-93.66
X115.0Y-95.97
X115.22Y-83.22
X115.61Y-70.38
X115.67Y-106.8
X115.84Y-101.14
X116.28Y-85.73
X118.35Y-88.4
X119.9Y-80.24
X119.92Y-82.14
X120.04Y-85.73
X120.05Y-92.09
X120.09Y-94.63
X120.28Y-97.42
X121.17Y-88.45
X121.42Y-93.3
X121.52Y-95.56
X121.56Y-104.62
X121.62Y-88.0
X121.72Y-81.21
X121.72Y-83.53
X122.15Y-87.47
X122.8Y-87.47
X122.94Y-90.81
X123.09Y-85.19
X123.86Y-101.14
X124.66Y-103.79
X124.9Y-106.23
X125.08Y-93.4
X125.1Y-83.24
X125.1Y-92.13
X125.12Y-90.81
X125.2Y-85.02
X125.24Y-86.0
X125.35Y-84.09
X125.41Y-95.56
X126.575Y-78.65
X126.575Y-80.14
X126.58Y-94.91
X126.59Y-79.41
X126.78Y-105.26
X126.82Y-90.27
X127.02Y-92.62
X127.02Y-93.8
X127.31Y-83.97
X127.82Y-102.2
X128.05Y-92.6
X128.07Y-93.82
X128.13Y-83.03
X128.14Y-83.96
X128.52Y-77.94
X128.9Y-88.41
X128.99Y-96.62
X129.04Y-103.95
X130.44Y-79.68
X130.45Y-86.24
X130.61Y-86.96
X131.43Y-87.55
X131.44Y-86.84
X131.46Y-86.17
X131.89Y-83.03
X131.91Y-84.21
X131.92Y-106.8
X131.96Y-101.14
X131.98Y-93.8
X132.0Y-92.62
X132.12Y-70.35
X132.5Y-81.95
X132.55Y-77.97
X133.15Y-86.85
X133.188Y-84.21
X133.21Y-85.89
X133.278Y-92.62
X133.47Y-90.87
X133.97Y-86.61
X133.975Y-86.08
X133.975Y-87.132
X133.98Y-78.51
X133.98Y-79.37
X133.98Y-80.17
X134.546Y-90.85
X134.557Y-92.62
X134.9Y-84.24
X135.532Y-86.01
X135.622Y-90.82
X135.745Y-84.21
X135.835Y-92.62
X136.23Y-103.95
X136.27Y-96.62
X136.608Y-86.01
X136.698Y-90.82
X136.7Y-74.43
X136.71Y-79.31
X137.023Y-84.21
X137.113Y-92.62
X137.684Y-86.23
X137.774Y-90.6
X138.17Y-70.31
X138.3Y-83.83
X138.392Y-92.62
X139.578Y-83.83
X139.67Y-92.62
X139.78Y-106.8
X139.89Y-101.14
X140.14Y-88.37
X140.91Y-81.46
X141.31Y-76.21
X142.64Y-89.13
X142.65Y-87.6
X143.08Y-96.62
X143.12Y-103.95
X143.17Y-87.25
X143.17Y-89.6
X143.74Y-84.38
X143.74Y-92.47
X144.01Y-90.41
X144.06Y-86.36
X144.09Y-88.35
X144.32Y-83.77
X144.32Y-93.08
X144.62Y-85.84
X144.62Y-91.01
X144.774Y-88.35
X144.95Y-83.14
X144.95Y-93.71
X145.21Y-85.25
X145.21Y-91.6
X145.34Y-79.43
X145.457Y-88.35
X145.61Y-82.48
X145.61Y-94.37
X145.88Y-84.62
X145.88Y-92.23
X146.141Y-88.35
X146.32Y-81.81
X146.32Y-95.04
X146.53Y-83.9
X146.53Y-92.95
X146.825Y-88.35
X147.08Y-81.03
X147.08Y-95.82
X147.18Y-83.26
X147.18Y-93.59
X147.19Y-90.89
X147.31Y-86.55
X147.41Y-101.14
X147.59Y-106.8
X147.81Y-80.3
X147.81Y-96.55
X147.85Y-82.63
X147.85Y-94.22
X147.95Y-74.74
X148.42Y-70.24
X148.51Y-81.94
X148.51Y-94.91
X148.64Y-79.53
X148.64Y-97.32
X149.19Y-81.26
X149.19Y-95.59
X149.3Y-78.87
X149.3Y-84.39
X149.3Y-86.55
X149.3Y-88.91
X149.3Y-90.89
X149.3Y-92.78
X149.3Y-97.98
X149.72Y-80.73
X149.72Y-96.12
X150.12Y-78.15
X150.12Y-98.7
X150.31Y-80.2
X150.31Y-96.65
X151.11Y-77.84
X151.11Y-99.01
X151.13Y-80.2
X151.13Y-96.65
X151.31Y-103.95
X151.87Y-84.27
X151.87Y-86.55
X151.87Y-88.91
X151.87Y-90.89
X151.87Y-92.78
X152.03Y-77.83
X152.03Y-80.2
X152.03Y-96.65
X152.03Y-99.02
X152.88Y-80.18
X152.88Y-96.67
X152.89Y-77.81
X152.89Y-99.04
X153.82Y-80.16
X153.82Y-96.69
X153.83Y-77.83
X153.83Y-99.02
X153.93Y-84.41
X153.93Y-86.55
X153.93Y-88.91
X153.93Y-90.89
X153.93Y-92.78
T2
X109.05Y-79.0
X109.05Y-97.835
X111.59Y-79.0
X111.59Y-97.835
X121.05Y-70.64
X141.57Y-70.77
M30
